<?xml version="1.0" encoding="utf-8"?>
<!-- Generator: Adobe Illustrator 19.0.0, SVG Export Plug-In . SVG Version: 6.00 Build 0)  -->
<svg version="1.1" id="Layer_1" xmlns="http://www.w3.org/2000/svg" xmlns:xlink="http://www.w3.org/1999/xlink" x="0px" y="0px"
	 viewBox="0 0 504.8 114" style="enable-background:new 0 0 504.8 114;" xml:space="preserve">
<style type="text/css">
	.st0{clip-path:url(#XMLID_112_);}
</style>
<g id="XMLID_27_">
	<defs>
		<rect id="XMLID_1_" x="2.4" y="1.7" width="500" height="110.7"/>
	</defs>
	<clipPath id="XMLID_112_">
		<use xlink:href="#XMLID_1_"  style="overflow:visible;"/>
	</clipPath>
	<path id="XMLID_54_" class="st0" d="M237.4,68.6c0.1,0.1,0.2,0.2,0.2,0.3c0.5-0.3,1-0.5,1.4-0.9c1.7-1.2,3.4-2.4,4.9-3.8
		c2.4-2.1,4.8-4.2,6.3-7.1c0.2-0.3,0.2-0.9,0-1.1c-0.2-0.2-0.8-0.4-1-0.3c-0.7,0.3-1.2,0.9-1.8,1.3c-2.1,1.6-3.9,3.5-5.7,5.3
		C239.9,64.3,238.7,66.5,237.4,68.6 M209.5,72c0.2,0.1,0.4,0.2,0.5,0.4c3.2-2.9,6.5-5.7,9.6-8.8c1.2-1.2,2-2.7,3-4.2
		c0.1-0.2-0.2-1-0.4-1c-0.5,0-1,0.1-1.4,0.4c-2.1,1.6-4.3,3.2-6,5.4c-1.3,1.7-2.8,3.2-4,4.9C210.2,69.9,209.9,71,209.5,72 M268.9,47
		C268.9,47.1,268.9,47.1,268.9,47c-0.8,0-1.5,0-2.3,0c-0.2,0-0.4-0.2-0.6-0.2c-1.1,0.1-2.5,0.6-3.3,0.2c-1.3-0.7-2.6-0.5-3.7-0.4
		c-2.2,0.2-4.4-0.1-6.6-0.2c-1.1,0-2.3,0.1-3.4,0.1c-1.1,0-2.2,0.1-3.2,0.1c-1,0-2.1-0.2-3.1,0c-1.4,0.3-2.9,0.4-4.2,0.4
		c-2.9,0-5.8,0.4-8.7,0.6c-1.1,0.1-2.3-0.2-3.3,0.1c-0.9,0.2-1.9,0.1-2.6,0.4c-0.9,0.4-1.8,0-2.8,0.5c-0.9,0.5-2.3,0.3-3.4,0.4
		c-0.8,0.1-1.6,0.6-2.3,0.5c-1.7-0.4-3,0.7-4.6,0.7c-1.5,0-3,0.8-4.5,1.1c-1.2,0.3-2.3,0.4-3.5,0.5c-1.1,0.2-2.1,0.4-3.2,0.8
		c-1.1,0.5-2.5,0.4-3.7,0.7c-2.1,0.5-4.2,1.1-6.4,1.7c-0.5,0.1-1,0.2-1.6,0.3c0-0.1,0,0.2,0,0.2c-1.2,0.1-2.2,0.7-3.3,1.1
		c-0.9,0.3-2,0.4-2.9,0.6c-1.3,0.3-2.6,0.7-3.9,1.2c-1,0.3-2.3,0.5-2.8,1.3c-3.2,4.2-6.3,8.5-9.2,13c-3.2,4.9-6.1,9.9-9.1,14.9
		c-0.2,0.4-0.2,1.1,0,1.5c0.1,0.2,0.9,0.3,1.2,0.1c2-1,4-1.9,5.8-3.1c1.6-1.1,3.1-2.5,4.6-3.8c2.1-1.9,4.2-3.7,6.2-5.7
		c1.7-1.7,3.3-3.5,4.9-5.3c1.3-1.4,2.7-2.8,3.9-4.3c0.3-0.3,0.2-1,0.3-1.5c0.1-0.7,0-1.5,0.3-2c1.5-2.6,3.6-4.6,6.1-6.2
		c0.6-0.4,1.4-0.3,2.2-0.5c0.1,0.8,0.1,1.5,0.2,2.3c0,0.3-0.1,0.7,0,0.9c0.1,0.2,0.5,0.2,0.8,0.1c1.5-0.3,2.9-0.8,4.4-1.1
		c1.2-0.2,2.6-0.2,3.1,1.1c0.2,0.6-0.2,1.7-0.6,2.4c-1.5,2.1-3.1,4-4.6,6c-3,4-6.1,8.1-9.1,12.1c-1.1,1.4-2.1,2.8-3.2,4.3
		c0.1,0.2,0.1,0.3,0.2,0.5c0.4,0,0.9,0.1,1.2,0c1.3-0.5,2.6-0.9,3.7-1.6c2.3-1.4,4.5-2.9,6.8-4.4c1.7-1.1,3.4-2.1,5.2-3.2
		c1.2-0.7,2.4-1.1,2.9-2.7c1.6-4.3,4.9-7.3,8-10.5c1.5-1.6,3.4-2.9,5.2-4.2c2.2-1.6,4.7-2.8,7.5-3.2c1.5-0.2,3.1,0.4,3.3,1.4
		c0.2,1.1,0.3,2.3,0.1,3.4c-0.5,2.9-2.7,4.7-4.7,6.4c-2.1,1.8-4.4,3.2-6.7,4.7c-2.4,1.5-4.9,2.9-7.3,4.3c-0.3,0.2-0.7,0.4-0.7,0.6
		c-0.1,1.4-0.3,2.7-0.2,4.1c0,0.4,0.8,1,1.2,1.1c1.1,0.1,2.2,0.1,3.3-0.1c3.7-0.8,6.7-3.1,9.9-5.2c1.7-1.1,3.5-2.1,5.1-3.2
		c1.2-0.8,2.7-0.8,3.4-2.6c0.6-1.9,1.8-3.6,3.1-5.2c1.4-1.8,3.2-3.3,4.8-4.8c3.6-3.3,7.3-6.4,12.3-7.4c2.8-0.5,5.1,1.6,4.4,4.4
		c-0.5,2.1-1.7,3.6-3.1,5c-2.6,2.6-5.6,4.7-8.9,6.5c-2.1,1.2-4.3,2.4-6.4,3.6c-1.5,0.8-2.2,2.6-1.7,4.6c0.3,1,2,1.8,3.5,1.7
		c3.6-0.2,6.4-2.3,9.3-4.2c2-1.3,3.7-3.1,5.6-4.7c2.6-2.2,5.1-4.4,7.7-6.6c0.8-0.7,1.5-1.4,2.2-2.1c1.9-1.7,3.9-3.2,5.7-5
		c1.4-1.3,2.7-2.8,4-4.3c0.8-1,1.5-2,2.2-3.1c0.4-0.5,0.4-1.1-0.4-1.2c-1.4-0.2-2.8-0.2-4.2-0.3C270.1,47.3,269.5,47.1,268.9,47
		 M179.9,53c0.8-0.2,1.7-0.2,2.5-0.5c4.5-1.2,8.9-2.4,13.3-3.6c2.6-0.7,5.3-1.2,8-1.7c2.6-0.4,5.2-0.7,7.8-1.1
		c2.9-0.5,5.7-1.1,8.6-1.5c3.3-0.4,6.7-0.6,10-0.9c3.7-0.3,7.3-0.7,11-0.8c5.5-0.1,11.1-0.1,16.6-0.1c2.9,0,5.9,0.2,8.8,0.4
		c3.2,0.3,6.5,0.6,9.7,1.2c1.9,0.4,2.8-0.2,3.8-1.8c1.2-1.9,2.8-3.4,4.3-5.1c2-2.4,4-4.8,6-7.3c0.8-1,1.8-1,2.7-0.8
		c1,0.2,0.8,1.3,0.9,2.1c0.1,2-1.3,3.4-2.3,4.9c-2.1,3-4.4,5.9-6.7,9.2c1.3-0.1,2.2,0.5,3.3,0.6c1.9,0.1,3.7,0.7,5.6,1.1
		c0.7,0.2,1.4,0.4,2.2,0.6c1.6,0.3,3.3,0.6,4.9,1c1.2,0.2,2.3,0.4,3.5,0.7c2.2,0.5,4.4,1.1,6.6,1.6c0.9,0.2,1.8,0.4,2.7,0.7
		c1.1,0.3,1.6,0.9,0.9,2.1h-2.9c0,0.1,0,0.2,0,0.3c-0.3-0.3-0.6-0.5-1-0.9c-0.2,0.2-0.3,0.4-0.4,0.5c-0.9-0.3-1.8-0.5-2.8-0.8
		c-1.1-0.3-2.1-0.6-3.2-0.8c-0.7-0.1-1.5,0-2.2,0c-0.2,0-0.4-0.1-0.6-0.2c-0.3-0.2-2.2-0.3-2.7-0.3c-0.6-0.1-1.2-0.3-1.9-0.5
		c-1.4-0.4-2.8-0.8-4.2-1c-1.3-0.2-2.7-0.3-4-0.3c-0.5,0-0.7-0.9-1.6-0.4c-0.7,0.3-1.8-0.4-2.8-0.5c-0.5-0.2-1-0.3-1.7-0.6
		c-1.7,2.2-3.5,4.6-5.2,7c-1.9,2.6-3.8,5.2-5.7,7.8c-1.7,2.4-3.4,4.7-4.9,7.2c-0.9,1.5-1.7,3-2.4,4.6c-0.4,0.8-0.6,1.3,0.9,1.3
		c2.3,0,4.5-0.6,6.6-1.1c2.7-0.6,5.3-2,7.9-3.1c4.8-1.9,9.5-4.1,14.6-4.8c2.2-0.3,4.4-0.2,6.6-0.2c2.9,0,5.7,0.1,8.6,0.3
		c2.4,0.2,4.8,0.6,7.2,1.1c1.1,0.2,1.2,1.1,0.8,1.8c-0.2,0.4-1,0.6-1.5,0.6c-0.6,0.1-1.3-0.1-1.9-0.5c-0.2,0.2-0.5,0.5-0.7,0.5
		c-1.3-0.3-2.6-0.9-3.8-0.8c-0.8,0.1-1.6,0-2.1-0.1c-1.6-0.3-3.3-0.1-4.9-0.3c-1.8-0.3-3.7,0.2-5.6,0.3c-1.4,0.1-2.9,0.3-4.3,0.5
		c-0.8,0.1-1.5,0.2-2.2,0.5c-2,0.7-4,1.3-6,2.1c-2.7,1-5.3,2.3-7.9,3.3c-1.6,0.6-3.3,0.9-5,1.5c-0.8,0.3-1.6,0.6-2.5,1
		c0,0-0.1,0.1-0.1,0.1c-1.5-0.7-2.8,1-4.4,0.2c-0.5-0.3-1.6,0.4-2,0.1c-0.9-0.7-2.2-1.6-2.3-2.6c-0.5-2.8,0.7-5.3,2-7.7
		c0.8-1.6,1.6-3.3,2.2-5c-2,1.6-4,3.2-6,4.9c-2.3,2-4.4,4.1-6.7,6c-2.3,1.8-4.7,3.4-7.3,4.9c-1.3,0.8-2.9,1.2-4.4,1.6
		c-1.4,0.3-2.9,0-4.3,0.3c-1,0.2-1.9,0.1-2.8,0c-2.2-0.2-4.3-2.6-4-4.8c0.1-0.6,0.1-1.3,0.1-2.2c-0.9,0.5-1.6,1-2.4,1.4
		c-1.4,0.9-2.9,1.9-4.3,2.8c-0.6,0.4-1.2,0.8-1.9,1.2c-1.5,1-3,2.2-4.7,2.9c-1.4,0.6-3.1,0.7-4.7,1c-1.1,0.2-2.2,0.5-3.3,0.7
		c-1.8,0.4-2,0.3-3.5-0.7c0,0.3,0.1,0.5,0.1,0.7c-1.1-0.8-2.5-1.3-2.8-2.8c-0.2-1.3-0.2-2.6-0.3-4.1c-4.1,2.8-8,5.7-12.1,8.2
		c-1.6,1-3.6,1.1-5.4,1.7c-0.4,0.1-0.7,0.3-1.1,0.3c-2.5,0-3.9-1.8-3.5-4.4c0.3-2.1,1.3-3.9,2.4-5.6c1.8-2.6,3.6-5.1,5.5-7.6
		c1.3-1.6,2.8-2.9,4.2-4.4c0.3-0.3,0.5-0.7,0.9-1.4c-0.5,0.1-0.6,0.1-0.7,0.1c-1.8,0.4-3.8,1.4-5.4,3.1c-1.4,1.4-2.6,3-3.9,4.5
		c-1,1.1-2.1,2.2-3.1,3.2c-1.4,1.4-2.8,2.9-4.3,4.2c-3.3,3-6.4,6.1-9.9,8.8c-2.3,1.8-5,2.9-8.1,3.2c-1.3,0.1-2.3,0.2-3.6-0.6
		c-1.3-0.9-1.3-2.1-1-3.2c0.5-2,1.2-4,2.1-5.9c1.5-3.1,3-6.2,4.8-9.1c1.5-2.5,3.4-4.9,5.1-7.3c0.4-0.6,0.8-1.2,1.1-1.7
		c-0.1-0.1-0.1-0.2-0.2-0.4c-1.4,0.6-2.7,1.2-4.1,1.8c-1.6,0.7-3.1,1.5-4.7,2.1c-0.2,0.1-0.9-0.1-0.9-0.3c-0.3-0.8-0.4-1.7-0.5-2.6
		c0-0.2,0-0.4-0.1-0.6c-0.8-1.7-0.6-2,1.1-2.6c3.7-1.3,7.5-2.7,11.2-4c1-0.4,2-0.6,2.9-1.1c0.7-0.3,1.3-0.7,1.8-1.3
		c2.2-3,4.4-6,6.6-9c1.2-1.7,2.4-3.4,3.7-5.1c0.5-0.7,1.2-1.3,1.9-1.7c1.4-0.8,2.5,0.1,2.6,1.7c0.1,1.9-1,3.3-1.8,4.7
		c-1.4,2.4-3.2,4.6-4.8,6.9C179.9,52.7,179.9,52.8,179.9,53"/>
	<path id="XMLID_50_" class="st0" d="M118.2,38.5c-0.8-1.7-1.3-1.9-2.2-1.1c-1.4,1.2-2.8,2.4-4.1,3.7c-2.1,2.1-4.4,4.3-6.3,6.6
		c-1.6,2-3,4.3-4.2,6.6c-0.7,1.4-0.9,3-1.2,4.6c-0.2,1,0.2,1.2,1.1,1c2.5-0.3,3.9-2.2,5.4-3.9c2.8-3.3,5.5-6.7,8.1-10.1
		c0.8-1.1,1.7-2.5,1.8-3.8C116.4,40.5,116.8,39.3,118.2,38.5 M48.3,43.9c0.1,0.1,0.2,0.2,0.3,0.3c0.3-0.1,0.6-0.2,0.9-0.3
		c3.2-0.9,6.5-1.7,9.7-2.7c3-0.9,6-2,8.9-3c3.2-1.1,6.5-2.2,9.7-3.4c3-1.1,6-2.4,9-3.6c1.3-0.5,2.7-1,4-1.6c1.2-0.6,2.3-1.4,3.5-2
		c4.9-2.5,9.6-5.2,13.7-8.8c2.1-1.9,4.1-3.9,4.9-6.8c0.6-2,0.3-4.6-2.4-5c-0.9-0.1-1.7-0.5-2.5-0.8c-0.4-0.1-0.8-0.2-1.1-0.3
		c-0.4,0-0.8-0.4-1.2-0.4c-1.2,0-2.4,0.1-3.6,0.1c-1,0-2-0.1-3,0c-1.9,0.2-3.7,0.5-5.6,0.8c-1.5,0.3-3,0.1-4.4,0.8
		c-0.5,0.3-1.3,0.1-2.1,0.2c0-0.1-0.1,0.2-0.2,0.4c-0.3-0.3-0.6-0.5-0.9-0.7c-0.1,0.3-0.2,0.7-0.3,0.7c-1.1,0.3-2.2,0.4-3.3,0.8
		c-0.8,0.3-2.5-0.1-1.6,1.9c0.1,0.3-0.2,1-0.5,1.3c-1.3,1.4-2.7,2.8-4.1,4.1c-2.6,2.5-5.4,5-7.9,7.6c-2.2,2.3-4.2,4.8-6.7,6.7
		c-1.8,1.4-3.3,3.3-4.9,5c-2.2,2.2-4.4,4.2-6.5,6.4C49.4,42.2,48.9,43.1,48.3,43.9 M84.8,37.1c-0.1,0.9-0.1,1.9-0.2,3.1
		c2-0.6,4.1-1.1,6.1-1.7c0.9-0.3,1.9-0.7,2.7,0.1c0.9,0.9,0.9,2.5,0,3.5c-1.2,1.4-2.7,2.6-3.9,4.1c-1.3,1.6-2.5,3.3-3.7,4.9
		c-1.7,2.3-3.4,4.6-5.1,6.9c-1.5,2-3,4.1-4.4,6.1c-0.2,0.3-0.2,0.9-0.3,1.3c0.4,0,0.8,0.1,1.1,0c1.9-0.6,3.6-1.5,5.1-2.9
		c2.1-1.9,4.3-3.6,6.4-5.5c1.6-1.4,3-3,4.5-4.5c1.7-1.7,3.5-3.4,5.2-5.2c2.7-2.9,5.4-5.8,8.2-8.7c0.8-0.8,1.8-1.5,2.7-2.3
		c0.9-0.8,1.8,0,2.6,0.2c0.7,0.2,1.1-0.1,1.6-0.4c1.1-0.7,2.3-1.5,3.6-1.9c2.7-0.8,4.1,1.1,3.8,3.6c0,0.2,0,0.4-0.1,0.6
		c0.1,0.1,0.2,0.2,0.3,0.3c1.7-1.1,3.5-2.1,5-3.4c1.6-1.3,3.4-2.3,5.4-2.7c1.1-0.2,2,0.6,1.9,1.6c0,0.3-0.3,0.7-0.6,0.8
		c-2.3,0.6-4.2,1.7-5.9,3.5c-1.4,1.5-3.2,2.8-5.5,3.1c-1.6,0.2-2.1,1.3-3.9,4.3c-1.3,2.2-2.8,4.2-4.3,6.3c-0.9,1.3-1.9,2.5-2.9,3.7
		c-2.4,2.8-4.9,5.6-8.3,7.4c-0.9,0.5-2,1.3-3.2,0.6c0-0.1,0,0,0,0c0,0,0.1,0.1,0.1,0.1c0,0.2-0.1,0.5-0.1,0.5
		c-0.7-0.1-1.5-0.1-2.1-0.4c-3.2-1.7-2.5-5.2-1.8-8c0.2-0.6,0.3-1.1,0.5-1.7c-0.1-0.1-0.2-0.1-0.4-0.2c-1.5,1.5-2.9,3.1-4.5,4.6
		c-1.9,1.8-3.9,3.5-5.9,5.1c-1.5,1.2-3.1,2.3-4.9,3.1c-1.7,0.8-3.6,1.4-5.4,1.6c-2,0.2-3.3-2.2-2.7-4.5c0.7-3.1,2.4-5.7,4.2-8.2
		c2.4-3.3,5.1-6.5,7.6-9.8c0.4-0.5,1.2-0.9,0.4-1.6c-0.8,0.3-1.4,0.6-2.2,0.9c0,1.2-0.7,0-1.1-0.1c0.1,0.3,0.3,0.6,0.3,0.6
		c-0.4,0.4-0.7,0.7-1,0.9c-1.1,0.8-2.5,1.8-2.9,2.8c-0.9,1.9-2.5,3.1-3.7,4.7c-1.4,1.7-3,3.3-4.5,4.9c-2.5,2.6-4.8,5.2-7.5,7.6
		c-2.4,2.1-5,3.9-7.6,5.8c-0.7,0.5-1.5,0.9-2.2,1.1c-0.4,0.1-1-0.3-1.3-0.7c-0.2-0.2-0.1-0.9,0.1-1.1c0.5-0.6,1.2-1.1,1.9-1.4
		c4.2-2,7.3-5.3,10.4-8.5c1.9-1.9,3.8-3.8,5.6-5.8c2.3-2.5,4.5-5.1,6.7-7.6c0.8-1,1.5-1.7,1.3-3.4c-0.3-2.2,1.9-3.5,3.2-5
		c0.3-0.4,0.7-0.7,1-1.1c0-0.1-0.1-0.3-0.1-0.4c-0.6,0-1.3-0.1-1.9,0.2c-2.3,0.8-4.7,1.7-7,2.6c-2.3,0.8-4.6,1.7-6.9,2.5
		c-2.1,0.7-4.2,1.7-6.4,2.1c-2,0.4-3.8,1.7-6,1.6c-1.1-0.1-2.1,0.8-3.2,1.2c-0.2,0.1-0.3,0.1-0.5,0.1c-0.2,0-0.5,0.1-0.7,0.1
		c0,0.1-0.1,0.3-0.1,0.4c-0.3-0.2-0.7-0.5-0.7-0.5c-0.2,0.2-0.4,0.5-0.7,0.6c-1.3,0.4-2.5,1-3.8,1.1c-1.2,0-1.6,0.8-2.1,1.4
		c-2.8,2.9-5.5,5.9-8.2,8.9c-1.9,2.1-3.7,4.3-5.6,6.4c-0.7,0.8-1.7,1.4-2.5,2.2c-0.5,0.5-0.8,1.1-1.2,1.6c-2.7,2.9-5.4,5.8-8,8.7
		c-1.1,1.2-2,2.5-3,3.7c-1.1,1.2-2,2.8-3.8,3c-0.5,0-0.9-0.1-1.5-0.1c0-0.1,0,0.1,0,0.5c-1.2-0.3-2.4-0.5-3.6-0.9
		c-0.2-0.1-0.3-0.9-0.1-1.2c1-1.4,2-2.8,3.1-4.2c2.2-2.6,4.3-5.3,6.6-7.8c2.3-2.6,4.6-5,6.9-7.6c1.3-1.4,2.6-2.8,3.9-4.2
		c1.5-1.6,3-3.3,4.5-4.9c0.7-0.8,1.4-1.5,2.1-2.4c-0.3-0.4-0.4-0.4-1.1-0.2c-1.9,0.4-3.9,0.5-5.9,0.9c-0.9,0.2-2-0.2-2.9-0.6
		c-0.2-0.1-0.3-1.5-0.1-1.6c1.2-0.7,2.4-1.3,3.7-1.7c1.4-0.4,2.9-0.6,4.4-0.9c1.8-0.4,3.6-1.1,5.4-1.2c2.1-0.1,3.1-1.6,4.4-2.8
		c2.2-2.1,4.3-4.3,6.4-6.4c2.5-2.5,5-5.1,7.5-7.5c2.8-2.7,5.6-5.4,8.4-8.1c4-3.8,7.9-7.6,12-11.6c-0.3-0.1-0.6-0.4-0.7-0.3
		c-1,0.7-2.5,0.1-3.4,1.3c-1-0.5-1.7,0.3-2.5,0.6C62.3,14,59.6,15,56.8,16c-3.2,1.1-6.5,2.3-9.6,3.5c-2.4,1-4.8,2.2-7.2,3.2
		c-1.4,0.6-2.9,0.9-4.3,1.6c-2.6,1.2-5.2,2.6-7.8,3.8c-2.2,1.1-4.4,2.1-6.6,3.2c-1.1,0.5-2.2,1.2-3.3,1.5c-1,0.3-2.1,0.5-3.1,0.3
		c-1.1-0.2-1.4-2-0.5-2.8c1.2-1.1,2.5-2.2,3.9-3c4.2-2.3,8.5-4.5,12.9-6.4c4.9-2.2,9.9-4.2,14.9-6.2c5.5-2.1,11-4,16.5-5.8
		c4.7-1.5,9.4-2.8,14.1-4c4.4-1.1,8.8-2.1,13.3-2.6c3.6-0.5,7.2-0.3,10.8-0.4c1.7,0,3.5-0.1,5.2,0.1c1.2,0.1,2.5,0.7,3.7,1
		c1.6,0.4,2.9,1.4,4.1,2.4c1.9,1.6,2.5,3.7,2.4,6.1c-0.1,2.9-1.5,5.2-3.2,7.3c-1.9,2.4-4.1,4.5-6.6,6.3c-1.4,1-2.7,2-4.2,3
		c-1.5,1-3.1,1.9-4.6,2.8c-0.9,0.5-1.8,1.1-2.8,1.5c-1.7,0.7-3.2,1.7-5.1,2c-1.4,0.3-2.6,1.2-3.9,1.8c-0.5,0.2-1,0.6-1.5,0.8
		C84.5,36.9,84.7,37,84.8,37.1"/>
	<path id="XMLID_18_" class="st0" d="M502.4,106.6v3.1h-19.9c0,0-0.1,0.3-0.3,0.3c-1.6-0.1-3.2-0.5-4.8-0.5c-1,0-2.1,0.4-3.1,0.4
		c-1.2,0-2.4-0.3-3.5-0.2c-2,0-3.9,0.2-5.9,0.3c-0.7,0-1.5-0.2-2.2-0.3c-0.6-0.1-1.2,0-1.9,0c0-0.1,0,0.4-0.1,0.3
		c-1.1-0.1-2.2-0.3-3.3-0.3c-1.5,0-3.1,0.2-4.6,0.2c-1.3,0-2.7-0.2-4-0.3c0-0.1,0,0.1,0,0.1h-18.9c-0.4,0.1-1.1,0.2-1.8,0.2
		c-0.7,0-1.3-0.2-2-0.2c-1.7,0-3.4,0-5.1,0.1c-1.5,0-3,0.1-4.5,0.1c-1.1,0-2.1,0.1-3.2,0.1c-2,0-4.1-0.1-6.1-0.1
		c-1.5,0-3,0.1-4.6,0.2c-2.5,0-5.1,0-7.6-0.1c-2.2,0-4.4-0.1-6.5-0.1c-1.4,0-2.7,0-4.1,0c-2.6,0-5.2,0.1-7.8,0.2
		c-2.6,0.1-5.2,0.2-7.7,0.2c-1.6,0-3.2-0.4-4.7-0.1c-1.2,0.2-2.3-0.4-3.5,0.1c-0.5,0.2-1.4-0.3-2.1-0.3c-0.9,0-1.8,0.2-2.8,0.2
		c-1.3,0-2.5,0-3.8,0c-1,0-2,0-3,0.1c-1.1,0-2.3,0.1-3.4,0.2c-1.7,0-3.4,0.1-5.1,0c-1.6,0-3.1-0.2-4.7-0.2c-1.1,0-2.1,0.1-3.2,0.1
		c-1.2,0-2.4-0.1-3.6-0.1c-1.5,0-3,0.1-4.5,0.1c-1.7,0-3.4-0.1-5-0.1c-1,0-2,0.1-3,0.1c-1.6,0-3.2,0-4.8,0c-1.4,0-2.9,0-4.3,0
		c-2.2,0-4.3-0.1-6.5,0c-2.4,0-4.8,0.1-7.1,0.2c-1.6,0-3.2,0-4.7,0c-2,0-4,0-5.9,0.1c-1.2,0-2.4-0.1-3.5-0.1c-1.6,0-3.2,0.2-4.7,0.2
		c-0.7,0-1.5-0.2-2.2-0.3c-0.5,0-0.9,0-1.4,0c-2.7,0-5.3,0-8,0.1c-2,0.1-4,0.3-6,0.3c-2.5,0-5-0.3-7.5-0.3c-2,0-4,0.3-6.1,0.3
		c-1.1,0-2.3-0.3-3.4-0.4c-1.4,0-2.9,0.2-4.3,0.2c-1.2,0-2.5-0.1-3.7-0.1c-1.1,0-2.1,0.1-3.2,0.1c-1.1,0-2.2,0.1-3.3,0.1
		c-1.6,0-3.2,0.1-4.8,0.1c-1.6,0-3.2-0.1-4.8-0.2c-1,0-2,0-2.9,0c-0.6,0-1.2-0.1-1.7-0.2c0,0,0.1,0.2,0.1,0.4c-6.8,0-13.5,0-20.3,0
		c-6.8,0-13.6,0.3-20.5,0.1c-6.7-0.2-13.3,0.2-20-0.2c0-0.1,0-0.3,0-0.4c-0.1,0.2-0.2,0.6-0.3,0.6c-1.6-0.1-3.3-0.3-4.9-0.4
		c-1,0-2,0.1-2.9,0.2c-0.6,0.1-1.2,0.2-1.8,0.2c-2-0.1-4.1-0.3-6.1-0.3c-1.1,0-2.2,0.3-3.3,0.4c-0.6,0-1.2,0-1.8-0.1
		c-0.2,0-0.5-0.3-0.5-0.4c0-1,0-1.9,0-2.8C253.8,107.3,378,107,502.4,106.6"/>
	<path id="XMLID_46_" class="st0" d="M135.2,90.5c-0.5-0.4-0.9-0.7-1.4-1.1c-0.1,0-0.2,0-0.2,0c-0.9,0-1.7,0-2.6-0.1
		c-0.7-0.1-1.4-0.5-2-0.5c-1.3-0.1-2.6-0.1-3.9-0.1c-0.4,0-1,0.2-1.3,0c-1.3-0.9-2.6-0.2-3.9-0.3c-1.1-0.1-2.3-0.1-3.4-0.1
		c-1.1,0-2.2-0.1-3.3,0c-1.4,0.1-2.8,0.4-4.1,0.6c-1.7,0.2-3.4,0.4-5.1,0.7c-1,0.2-2,0.6-3.1,0.9c-2.6,0.6-5.1,1.7-7.6,2.8
		c-1.7,0.8-3.2,2.1-4.9,2.8c-3,1.4-5.5,3.4-7.6,5.9c-2.2,2.7-1.7,3.4,0.3,4.9c0.4,0.3,1.1,0.3,1.7,0.5c3.3,0.9,6.6,0.2,9.9-0.2
		c3.1-0.4,6.1-1.4,9.1-2.2c1.6-0.4,3.3-0.9,4.9-1.5c2.8-1,5.6-2,8.4-3.1c1.6-0.6,3.3-1.2,4.9-1.9c2.3-1.1,4.5-2.2,6.8-3.4
		c1.4-0.7,2.8-1.4,4.2-2.1C132.3,92.2,133.8,91.4,135.2,90.5 M144.6,89.4c1.7,1.3,3.8,0.9,5.3,2.5c-1.5,0.6-2.7,0.5-4,0
		c-1.1-0.4-2.5-0.6-3.7-0.4c-1.2,0.3-2.2,1.3-3.2,2c-2,1.3-3.8,2.9-6,4c-3.5,1.7-6.9,3.7-10.5,5.3c-1.8,0.8-3.8,1.4-5.7,2.1
		c-0.7,0.3-1.4,0.7-2.1,1c-0.3,0.1-0.6,0.1-0.7,0.2c-0.9,0.3-1.6,0.5-2.3,0.8c-0.7,0.3-1.2,1.1-2,0.3c-0.2,0.3-0.3,0.7-0.5,0.7
		c-5.2,1.4-10.3,3.1-15.6,3.8c0-0.1-0.1-0.2-0.1-0.4c-0.1,0.2-0.2,0.6-0.2,0.6c-1,0.1-2,0.1-3,0.1c-0.1,0-0.2,0-0.3,0
		c-0.8,0.4-1.4,0.6-2.4,0.2c-0.8-0.3-1.8,0.1-2.8,0.1c-1.4,0-2.8,0-4.3-0.3c-1.4-0.2-2.5-1-3.3-1.6c-2.2-1.8-2.3-5.4-0.7-7.9
		c1.8-2.8,4.3-4.8,7-6.5c3-1.9,6.2-3.6,9.4-5.1c2.7-1.2,5.5-2,8.3-2.7c4-0.9,8-1.6,12.1-2.1c1.9-0.3,3.8-0.1,5.7-0.1
		c2.5,0,5.1-0.1,7.6,0.1c1.9,0.1,3.9,0.6,5.8,0.9c1.7,0.3,3.5,0.3,5.1,0.9c1.8,0.6,2.7-0.5,3.7-1.4c2.1-1.7,4.2-3.4,6.2-5.3
		c1.1-1.1,2-2.4,2.8-3.8c0.4-0.6,0.4-1.5-0.4-2c-0.6-0.5-1.2-1.1-1.9-1.6c-0.1,0.2-0.2,0.5-0.3,0.5c-0.8-0.2-1.6-0.5-2.4-0.6
		c-1-0.1-2.1,0.1-3.1,0.1c-0.5,0-1.2-0.5-1.3-0.4c-0.7,1.1-1-0.1-1.3-0.1c-0.2,0.2-0.4,0.6-0.6,0.7c-1.4,0.1-2.8-0.2-4.2,0.1
		c-1.5,0.3-2.9,0.3-4.4,0.3c-1.1,0-2.2,0.1-3.3,0.1c-1.3,0.1-2.7,0.3-4,0.4c-1.3,0.1-2.5,0-3.8,0c-0.4,0-0.9,0-1.3,0
		c-1,0.1-2,0.2-3-0.3c-0.5-0.2-1.2,0.2-1.9,0.2c-0.5,0-1.1,0-1.6-0.2c-1.1-0.4-2.2-1-3.3-1.5c-0.5-0.2-0.9-0.5-1.5-0.8
		c0,0,0.1-0.4-0.1-0.6c-1.8-2.5-1-5,0.3-7.3c1.6-2.7,3.7-5,6.1-7c5.3-4.3,11.1-7.9,17.2-10.7c3-1.4,6.2-2.1,9.1-3.5
		c3.2-1.4,6.6-2,9.9-2.8c2.4-0.6,4.9-0.8,7.3-0.9c2.8-0.1,5.6-0.1,8.4,0.3c2,0.3,4.2,0.6,5.8,2.2c0.5,0.5,0.9,1.7,0.8,2.3
		c-0.2,0.6-1.2,1.1-1.9,1.2c-0.4,0.1-1-0.8-1.5-1.2c-0.2-0.2-0.5-0.4-0.7-0.6c-0.2,0.2-0.6,0.5-0.7,0.5c-1.3-1.1-3-0.7-4.4-1.3
		c-0.6-0.3-1.4,0-2.1,0c-0.6,0-1.2,0-1.8-0.1c-1.1-0.1-2.1-0.3-3.2-0.2c-1,0.1-1.9,0.8-2.8,0.8c-2.8-0.2-5.1,1.2-7.7,1.8
		c-2.8,0.7-5.4,1.5-8,2.9c-0.9,0.5-1.9,0.6-2.8,1c-2.1,1-4.2,2-6.2,3.1c-3.2,1.8-6.5,3.4-9.5,5.5c-3.2,2.2-6.2,4.6-8.6,7.7
		c-1.1,1.4-0.2,3.5,1.6,3.9c3,0.7,5.9,0.6,8.9,0.4c0.8-0.1,1.6,0.2,2.4,0.1c3.5-0.2,6.9-0.5,10.4-0.7c1.6-0.1,3.1,0.2,4.7,0.1
		c1.5,0,3-0.3,4.4-0.2c1.4,0.1,2.8-0.2,4.2,0.5c0.4,0.2,1.1,0,1.5,0.1c1,0.3,2.1,0.6,3.1,1.1c1.9,0.8,2.4,2.6,2.9,4.4
		c0.9,3.3-1,5.7-2.8,7.9c-1.6,2.1-3.6,3.8-5.5,5.6C145.3,88.9,145,89.1,144.6,89.4"/>
	<path id="XMLID_15_" class="st0" d="M502.4,77.2v3.1c-11,0-22,0-33.1,0c-0.9,0-1.9,0-2.8,0c0-0.1,0,0.1,0,0H461
		c0-0.1,0,0.3-0.1,0.3c-0.7,0-1.3-0.2-2-0.2c-0.4,0-0.9,0-1.3,0c-1.6,0.1-3.3,0.3-4.9,0.2c-1.6,0-3.1-0.3-4.7-0.3
		c-1.1,0-2.2,0.3-3.2,0.3c-1.6,0-3.2-0.2-4.8-0.3c-1.1,0-2.1,0.2-3.2,0.2c-0.7,0-1.5-0.1-2.2-0.1c-0.5,0-1-0.1-1.6-0.1
		c-1.3,0-2.6-0.1-3.9,0c-1.5,0.1-3.1,0.3-4.6,0.3c-2,0-4-0.2-6-0.2c-1.2,0-2.3,0.2-3.5,0.2c-1.5,0-3-0.1-4.5-0.1c-1.6,0-3.1,0-4.7,0
		c-0.8,0-1.6-0.2-2.5-0.1c-1,0-2,0.2-3,0.2c-1.6,0-3.3-0.1-4.9-0.1c-1.6,0-3.1,0.1-4.7,0.1c-0.7,0-1.4-0.1-2.1-0.1
		c-1,0-2.1,0.1-3.1,0c-1.3,0-2.5-0.1-3.8-0.1c-1.1,0-2.2,0.2-3.4,0.2c-1.1,0-2.3-0.1-3.4-0.1c-1.1,0-2.2,0.1-3.3,0.1
		c-0.7,0-1.5-0.2-2.2-0.3c-0.5,0-1,0-1.4,0c-2.2,0-4.3,0-6.5,0.2c-1.2,0.1-2.3-0.2-3.5,0.1c-1,0.3-2.2-0.2-3.3-0.2
		c-1.1,0-2.1,0-3.2,0.1c-1.1,0-2.2,0.1-3.3,0.1c-1.6,0.1-3.3,0.1-4.9,0.1c-1.1,0-2.1,0-3.2-0.1c-1.2-0.1-2.4-0.2-3.6,0
		c-0.7,0.1-1.5-0.3-2.3-0.3c-0.9,0-1.8,0.1-2.7,0.1c-1.2,0.1-2.3,0.1-3.5,0.1c-1.2,0-2.5,0.1-3.7,0.1c-1.6,0-3.1-0.2-4.7-0.3
		c-1.5,0-2.9,0.2-4.4,0.2c-2,0-4.1-0.1-6.1-0.1c-1.9,0-3.9,0-5.8,0c-1.2,0-2.4-0.1-3.6,0c-2,0-3.9,0.1-5.9,0.1c-3,0-6-0.1-8.9,0
		c-1.1,0-2.4,0.5-3.4,0.2c-1.1-0.3-2.1,0-3.2-0.1c-1.6-0.1-3.2,0.1-4.8,0.2c-1.1,0-2.3-0.1-3.4-0.2c0-0.1,0-0.2,0-0.4
		c2.7-0.9,5.3-2,8.1-2.6c1.9-0.4,3.9-0.2,5.8-0.2c2.1,0,4.2,0.1,6.2,0.1c4,0,7.9,0.1,11.9,0c3.4,0,6.8-0.2,10.2-0.2
		c4.8,0,9.7,0.1,14.5,0.1c5.4,0,10.8-0.1,16.2-0.1c4.2,0,8.5,0.1,12.7,0.1c4.3,0,8.6-0.1,12.9-0.1c3.5,0,6.9,0.2,10.4,0.1
		c4.3,0,8.5-0.2,12.8-0.2c5.6,0,11.2,0,16.8,0c5.7,0,11.3-0.1,17-0.1c4.7,0,9.5,0.2,14.2,0.2c3,0,5.9-0.2,8.9-0.2
		c2.9,0,5.8,0.1,8.7,0.1c2.9,0,5.8-0.1,8.6-0.1c2.5,0,5,0.1,7.5,0.1c2.4,0,4.8-0.1,7.2-0.1c2.6,0,5.2,0.1,7.8,0.1
		c3.3,0,6.6-0.1,9.9-0.2C499.6,77.2,500.9,77.2,502.4,77.2"/>
	<path id="XMLID_14_" class="st0" d="M323.3,91v11.3c-1.9,0-3.8,0.1-5.6-0.1c-0.4,0-1-0.7-1-1.1c-0.1-4.4-0.1-8.8-0.1-13.2
		c0-0.6,0-1.1,0-1.8c3.5,0,7,0,10.5,0c0.4,0,1,0.2,1.1,0.4c1.3,2.4,2.4,4.8,3.6,7.2c0.4,0.7,0.9,1.3,1.6,2.1
		c1.5-2.7,2.9-5.3,4.2-7.9c0.6-1.1,1-2,2.6-1.9c2.8,0.1,5.7,0,8.5-0.1c1,0,1,0.5,1,1.2c-0.1,3.2-0.2,6.5-0.2,9.7
		c0,1.7,0.2,3.4,0.3,5.1h-7.1c-0.2-3.7,0.2-7.5-0.1-11.3c-0.2,0-0.3,0-0.5,0c-1.9,3.8-3.9,7.5-5.8,11.4c-1.1,0-2.4,0-3.6,0
		c-1,0-2,0-2.9,0c-0.1,0-0.2-0.1-0.3-0.2c-0.6-1.2-1.1-2.4-1.7-3.7c-0.2-0.4-0.6-0.8-0.8-1.2c-0.3-0.6-0.5-1.2-0.7-1.8
		c0,0,0-0.1,0-0.1c-0.9-1.4-1.8-2.9-2.6-4.3C323.6,90.9,323.5,90.9,323.3,91"/>
	<path id="XMLID_41_" class="st0" d="M360.9,93.2c0.2,2.1,0.3,3.9,1.6,4.7c1.9,1.2,4.2,1.9,6.5,1c1.6-0.6,3.3-1.5,3.4-3.6
		c0.1-1.8,0.6-3.7-1.4-4.9c-0.7-0.5-1.5-0.7-2.2-1c-1.1-0.5-2.2-0.6-3.3-0.3c-1.1,0.3-2.4,0.5-3.1,1.3
		C361.6,91.1,361.2,92.5,360.9,93.2 M380.2,93.5c-0.1,3.2-1.5,5-3.6,6.5c-2,1.4-4.3,1.8-6.6,2.4c-1,0.3-2.2-0.1-3.3-0.2
		c-1,0-2,0-3,0c-0.7,0-1.4,0.1-2.1-0.1c-1-0.3-1.9-0.9-2.9-1.1c-1.6-0.4-2.8-1.4-3.9-2.6c-1.8-2-2.2-6.3-0.1-8.4
		c2.1-2.2,4.5-3.5,7.5-3.8c1.4-0.2,2.8-0.6,4.2-0.6c1.9,0.1,3.7,0.5,5.6,0.8c0.7,0.1,1.4,0.5,2.1,0.6c2.5,0.3,3.7,2.4,5.2,4
		C380.1,91.6,380.1,92.9,380.2,93.5"/>
	<path id="XMLID_38_" class="st0" d="M294,94.3c0.1,0.5,0.1,1.4,0.5,2c1.3,1.9,2.8,3.2,5.4,3c3-0.2,4.9-1.5,5.7-4.2
		c0.5-2.1-1.2-5.5-3.4-5.8c-1.4-0.2-2.9-0.6-4.5,0C295.5,90.1,294.2,91.5,294,94.3 M313.1,93.7c0.1,3.4-2,6.5-5.4,7.4
		c-1.6,0.4-3.1,1-4.7,1.2c-1.2,0.1-2.5,0.5-3.8,0c-0.9-0.3-1.9,0-2.9-0.1c-1.1-0.1-2.2,0-3.2-0.7c-0.9-0.6-2.1-0.7-3.2-1.1
		c-0.2-0.1-0.4-0.2-0.6-0.3c-2.9-2.3-4.1-7.9-0.8-10.9c2.2-1.9,4.8-3,7.7-3.3c1-0.1,2.1-0.4,3.1-0.3c2.3,0.2,4.6,0.4,6.8,0.9
		c1.4,0.3,2.9,1.1,4.1,1.9C312.1,89.7,313,91.5,313.1,93.7"/>
	<path id="XMLID_35_" class="st0" d="M221.4,95.7c-1-1.8-1.8-3.1-2.7-4.5c-0.2-0.3-0.6-0.5-0.8-0.7c-0.3,0.4-0.6,0.7-0.8,1.1
		c-0.1,0.2-0.2,0.4-0.3,0.7c-0.5,1.1-1.1,2.3-1.6,3.5H221.4z M232.8,102.3c-1.1,0.1-1.9,0.1-2.6,0.1c-1.1,0-2.3-0.4-3.3-0.1
		c-1.8,0.5-2.6-0.8-2.9-1.8c-0.6-1.9-2.1-1.7-3.2-1.5c-1.3,0.2-2.6-0.1-3.9-0.2c-1.1-0.1-2.2-0.4-3.2,0c-0.7,0.2-1.1,1.4-1.4,2.2
		c-0.4,1.3-1.3,1.5-2.4,1.6c-1.8,0.1-3.6,0-5.4,0c-0.7,0-0.7-0.4-0.4-0.9c1.7-2.8,3.4-5.6,5.2-8.4c1.3-2,2.5-4,3.9-5.9
		c0.3-0.4,0.9-0.9,1.3-0.9c2.5-0.1,5,0,7.5,0c0.3,0,0.7,0.4,1,0.7c1.3,1.9,2.6,3.8,3.8,5.8c1.1,1.8,2.2,3.8,3.3,5.6
		C230.9,99.7,231.8,100.9,232.8,102.3"/>
	<path id="XMLID_7_" class="st0" d="M236.3,86.5h7.3c0,3.2,0,6.5,0,9.7c0,0.9,1.4,2.9,2.3,3c1.6,0.3,3.2,0.2,4.8-0.6
		c1.2-0.6,1.4-1.6,1.4-2.6c0.1-3.2,0-6.4,0-9.6h7.2c0,3.6,0.1,7.2,0,10.7c-0.1,1.9-1.4,3.2-3,3.9c-1.5,0.7-3.2,1.1-4.9,1.5
		c-1.2,0.2-2.4,0.2-3.9,0.2c0.1-0.1,0,0.1,0-0.1c-1.2,0-2.2,0.2-3.2,0c-1.1-0.2-2.2-0.8-3.2-1.2c0-0.1,0,0.2,0.1,0.4
		c-1.2-0.9-2.6-1.3-3.5-2.6c-1.8-2.3-1.1-4.9-1.3-7.4C236.2,90.1,236.3,88.3,236.3,86.5"/>
	<path id="XMLID_6_" class="st0" d="M466.3,95.2c-0.9,0.1-1.7,0.1-2.6,0.2c-1.2,0-2.4,0-3.7,0c-1.1,0-2.2-0.1-3.4-0.1
		c-0.3,0-0.9,0.4-1,0.6c-0.1,0.8-0.1,1.7,0,2.5c0,0.2,0.6,0.3,0.9,0.3c3.3,0,6.6-0.1,9.9-0.1c0.3,0,0.7,0.4,0.8,0.7
		c0.2,0.7,0.2,1.4,0.2,2.1c0,0.2-0.5,0.6-0.6,0.6c-1.5-0.6-3.3,0.7-4.6-1c0.1,0.3,0.3,0.6,0.4,0.9c-1.5,0.1-2.9,0.2-4.3,0.2
		c-3.1,0-6.3,0-9.4,0c-0.2,0-0.5-0.4-0.5-0.6c0-4.1,0.1-8.2,0.2-12.3c0-0.6-0.1-1.2-0.2-1.8c-0.1-1,0.3-1.3,1.2-1.3
		c4.9,0,9.8,0,14.8-0.1c0.9,0,1.7,0,2.7,0v3.3c-2.3,0-4.6,0-6.9,0c-1.2,0-2.3-0.2-3.5-0.2c-0.4,0-0.9,0.4-1,0.7
		c-0.2,0.7-0.2,1.5,0,2.1c0.4,1.3,1.6,0.5,2.3,0.5c2.7,0.1,5.5,0,8.3,0V95.2z"/>
	<path id="XMLID_5_" class="st0" d="M418.3,85.9c2.3,0,4.6,0,6.8,0c0.3,0,0.8,0.3,1,0.6c0.4,0.7,0.8,1.4,1.1,2.1
		c1.2,2.4,2.4,4.9,3.6,7.3c0.2,0.4,0.6,0.8,1,1.4c0.7-1.5,1.4-2.7,2-4c1-2.2,2.1-4.3,3.1-6.5c0.3-0.6,0.6-1,1.6-0.9
		c1.9,0.2,3.8-0.1,5.8-0.1c0.2,0,0.3,0.1,0.6,0.2c-1.1,1.9-2.2,3.7-3.2,5.5c-1.2,2.2-2.4,4.5-3.6,6.7c-0.6,1.1-1.2,2.2-1.9,3.3
		c-0.1,0.2-0.5,0.3-0.8,0.3c-2,0-4-0.1-5.9,0c-2.3,0.1-3-0.3-3.8-2.6c-0.1-0.3-0.4-0.6-0.6-0.9c-0.4-0.7-0.7-1.4-1-2.1
		c-0.2-0.3-0.4-0.6-0.6-0.9c-0.4-0.7-0.7-1.4-1.1-2.1c-0.1-0.1-0.1-0.3-0.2-0.4c-0.9-1.3-1.8-2.6-2.7-4C419,88,418.7,87,418.3,85.9"
		/>
	<path id="XMLID_4_" class="st0" d="M383.7,89.4v-3.3H404v3.2c-2,0-3.9,0-5.8,0c-0.2,0-0.7,0.5-0.7,0.8c0,2.8,0.1,5.5,0.2,8.3
		c0,1,0.1,1.9-0.1,2.9c0,0.3-0.5,0.6-0.8,0.7c-1.1,0.1-2.1,0-3.2,0c-0.7,0-1.4-0.3-2-0.1c-1.2,0.4-1.1-0.3-1.1-1.1c0-3.5,0-7,0-10.5
		c0-1-0.2-1-1.2-0.9c-1,0.1-2,0-3,0C385.5,89.4,384.6,89.4,383.7,89.4"/>
	<path id="XMLID_3_" class="st0" d="M283.1,86.4v3.2c-0.9,0-1.9,0-2.9,0c-1,0-2-0.2-3-0.1c-0.2,0-0.5,0.7-0.5,1.1
		c0,3.4,0,6.9,0,10.3c0,0.5-0.2,1-0.3,1.3c-2,0-3.8-0.1-5.5,0.1c-1,0.1-1.3-0.2-1.3-1.1c0-3.5,0-7.1,0-10.6c0-0.7,0.4-1.6-0.9-0.9
		c-0.2,0.1-0.8-0.4-1.2-0.6c0,0.1,0.1,0.4,0.1,0.6h-4.7v-3.3H283.1z"/>
	<path id="XMLID_2_" class="st0" d="M414.8,101.8c-2.1,0.1-4.3,0.2-6.5,0.2c-0.2,0-0.7-0.5-0.7-0.7c0-3.8,0-7.6,0-11.3
		c0-1-0.1-2.1,0-3.1c0-0.3,0.6-0.9,0.9-0.9c1.8-0.1,3.6-0.1,5.4,0c0.3,0,0.9,0.8,0.9,1.2c0.1,3.6,0,7.2,0,10.8
		C414.8,99.2,414.8,100.5,414.8,101.8"/>
</g>
</svg>
